<?xml version="1.0" standalone="no"?>
<!DOCTYPE svg PUBLIC "-//W3C//DTD SVG 20010904//EN"
 "http://www.w3.org/TR/2001/REC-SVG-20010904/DTD/svg10.dtd">
<svg version="1.0" xmlns="http://www.w3.org/2000/svg"
 width="460.000000pt" height="225.000000pt" viewBox="0 0 460.000000 225.000000"
 preserveAspectRatio="xMidYMid meet">

<g transform="translate(0.000000,225.000000) scale(0.100000,-0.100000)"
fill="#000000" stroke="none">
<path d="M0 1125 l0 -1125 2300 0 2300 0 0 1125 0 1125 -2300 0 -2300 0 0
-1125z m3775 682 c123 -38 201 -83 301 -173 70 -64 161 -226 189 -339 25 -102
24 -278 -4 -378 -65 -236 -230 -411 -466 -494 l-80 -28 -1440 -3 c-1022 -2
-1459 0 -1505 8 -177 30 -362 148 -459 290 -82 120 -117 228 -127 390 -25 373
256 709 626 750 41 4 705 7 1475 6 l1400 -1 90 -28z"/>
<path d="M1845 1394 c-73 -19 -86 -27 -111 -69 -20 -35 -25 -57 -25 -113 -1
-138 47 -176 241 -195 18 -1 26 -9 28 -26 l4 -24 -130 5 -131 5 -11 -65 c-13
-78 -14 -78 87 -88 111 -10 242 -1 286 20 61 30 93 120 76 213 -16 81 -64 116
-183 134 -72 11 -76 13 -76 37 l0 25 104 -6 c58 -4 107 -3 110 1 2 4 8 35 11
68 l7 61 -28 7 c-40 8 -235 16 -259 10z"/>
<path d="M715 1378 c-3 -7 -23 -85 -46 -173 -22 -88 -53 -208 -69 -267 l-28
-108 93 0 93 0 11 45 11 45 75 0 74 0 8 -42 9 -43 92 -3 c51 -1 92 0 92 4 0
16 -131 520 -139 534 -11 20 -269 28 -276 8z m151 -195 c3 -16 10 -44 15 -63
14 -56 13 -60 -32 -60 -32 0 -40 3 -36 15 4 8 12 41 19 75 13 65 24 76 34 33z"/>
<path d="M1177 1383 c-4 -3 -7 -129 -7 -280 l0 -273 90 0 90 0 0 85 c0 70 3
85 16 85 9 0 30 -32 55 -85 l40 -85 95 0 c53 0 94 3 92 8 -2 4 -23 45 -46 91
l-43 84 29 31 c41 44 56 96 48 175 -8 94 -52 145 -137 162 -52 10 -313 12
-322 2z m271 -188 c4 -46 -14 -65 -65 -65 l-33 0 0 56 0 55 48 -3 47 -3 3 -40z"/>
<path d="M2240 1110 l0 -280 85 0 84 0 3 98 3 97 65 0 65 0 3 -97 3 -98 84 0
85 0 0 280 0 281 -82 -3 -83 -3 -3 -97 -3 -98 -69 0 -69 0 -3 98 -3 97 -82 3
-83 3 0 -281z"/>
<path d="M2904 1376 c-3 -7 -36 -133 -74 -280 l-68 -266 92 0 93 0 9 43 9 42
76 3 76 3 9 -43 9 -43 93 -3 c50 -1 92 -1 92 2 0 3 -23 94 -51 203 -28 109
-59 227 -68 263 -9 36 -20 71 -24 78 -12 18 -266 17 -273 -2z m160 -231 c9
-35 16 -69 16 -75 0 -5 -19 -10 -41 -10 -38 0 -41 2 -35 23 3 12 11 46 17 75
7 28 15 52 19 52 4 0 15 -29 24 -65z"/>
<path d="M3368 1384 c-5 -4 -8 -131 -8 -282 l0 -274 178 4 c160 3 181 5 223
26 35 17 53 35 75 75 27 49 29 59 29 167 0 170 -35 241 -133 271 -44 13 -354
25 -364 13z m310 -269 c3 -140 0 -145 -85 -145 l-53 0 0 134 0 135 33 3 c17 2
48 1 67 -2 l35 -5 3 -120z"/>
</g>
</svg>
