<svg xmlns="http://www.w3.org/2000/svg" xml:space="preserve" width="1500" height="1500" data-id="lg_z5wpOTkknecm9nZTBp" data-version="1" viewBox="0 0 1500 1500"><path fill="#405ee6" stroke="transparent" d="M0 0h1500v1500H0z"/><g data-padding="20"><g transform="translate(-576.165 -587.502)scale(1.72788)"><rect width="212.907" height="603.961" x="-852.015" y="239.696" fill="#283360" rx="104" ry="104" transform="matrix(0 -.9 .9 0 287.12 109.94)"/><rect width="212.907" height="603.961" x="-852.015" y="239.696" fill="#c6dbff" rx="104" ry="104" transform="matrix(0 -.9 .9 0 272.88 96.19)"/><rect width="463.252" height="134.47" x="255.883" y="603.77" fill="none" rx="0" ry="0" transform="translate(274.51 95.91)"/><path fill="#283360" d="m567.329 792.025-2.73 11.78h-25.11l19.28-74.38h36.77l19.28 74.38h-25.11l-2.74-11.78Zm10.48-39.75h-1.31l-4.88 20.82h10.95Zm93.54 26.77 12.85 24.76h-26.18l-9.76-22.14h-5.11v22.14h-23.8v-74.38h37.48q25.59 0 25.59 26.06 0 17.85-11.07 23.56m-22.73-30.58h-5.47v14.88h5.47q4.29 0 6.25-.9 1.96-.89 1.96-4.1v-4.88q0-3.21-1.96-4.11-1.96-.89-6.25-.89m40.93 54.03 3.33-19.64q10.95 2.74 19.69 2.74 8.75 0 14.11-.71v-5.95l-10.71-.96q-14.52-1.31-19.94-6.96-5.41-5.65-5.41-16.72 0-15.23 6.6-20.94 6.61-5.71 22.43-5.71 15.83 0 28.56 2.97l-2.97 19.04q-11.07-1.78-17.73-1.78-6.67 0-11.31.59v5.83l8.57.84q15.59 1.54 21.54 7.43t5.95 16.37q0 7.49-2.02 12.67-2.03 5.18-4.82 7.85-2.8 2.68-7.92 4.11-5.11 1.43-8.98 1.72-3.87.3-10.29.3-15.47 0-28.68-3.09m137.09 1.31h-23.8v-26.3h-17.85v26.3h-23.8v-74.38h23.8v26.3h17.85v-26.3h23.8Zm32.37-11.78-2.73 11.78h-25.11l19.28-74.38h36.77l19.27 74.38h-25.1l-2.74-11.78Zm10.48-39.75h-1.31l-4.88 20.82h10.95Zm74.85 51.53h-33.32v-74.38h33.32q20.11 0 27.6 8.57 7.5 8.57 7.5 28.62t-7.5 28.62q-7.49 8.57-27.6 8.57m.35-55.34h-9.87v36.3h9.87q4.88 0 7.08-1.13 2.21-1.13 2.21-5.18v-23.68q0-4.05-2.21-5.18-2.2-1.13-7.08-1.13"/></g><path fill="transparent" stroke="transparent" stroke-width="1.792" d="M250 566.308h1000v367.384H250z"/></g></svg>